<svg width="138" height="138" viewBox="0 0 138 138" fill="none" xmlns="http://www.w3.org/2000/svg">
<path d="M51.75 100.05L100.05 69L51.75 37.95V100.05ZM69 138C59.455 138 50.485 136.189 42.09 132.566C33.695 128.944 26.3925 124.028 20.1825 117.818C13.9725 111.608 9.05625 104.305 5.43375 95.91C1.81125 87.515 0 78.545 0 69C0 59.455 1.81125 50.485 5.43375 42.09C9.05625 33.695 13.9725 26.3925 20.1825 20.1825C26.3925 13.9725 33.695 9.05625 42.09 5.43375C50.485 1.81125 59.455 0 69 0C78.545 0 87.515 1.81125 95.91 5.43375C104.305 9.05625 111.608 13.9725 117.818 20.1825C124.028 26.3925 128.944 33.695 132.566 42.09C136.189 50.485 138 59.455 138 69C138 78.545 136.189 87.515 132.566 95.91C128.944 104.305 124.028 111.608 117.818 117.818C111.608 124.028 104.305 128.944 95.91 132.566C87.515 136.189 78.545 138 69 138ZM69 124.2C84.41 124.2 97.4625 118.853 108.158 108.158C118.853 97.4625 124.2 84.41 124.2 69C124.2 53.59 118.853 40.5375 108.158 29.8425C97.4625 19.1475 84.41 13.8 69 13.8C53.59 13.8 40.5375 19.1475 29.8425 29.8425C19.1475 40.5375 13.8 53.59 13.8 69C13.8 84.41 19.1475 97.4625 29.8425 108.158C40.5375 118.853 53.59 124.2 69 124.2Z" fill="white"/>
</svg>
